<?xml version="1.0" encoding="UTF-8" standalone="no"?>
<!-- Created with Inkscape (http://www.inkscape.org/) -->
<svg id="svg2" xmlns:rdf="http://www.w3.org/1999/02/22-rdf-syntax-ns#" xmlns="http://www.w3.org/2000/svg" height="57mm" viewBox="0 0 201.96863 201.96863" width="57mm" version="1.1" xmlns:cc="http://creativecommons.org/ns#" xmlns:dc="http://purl.org/dc/elements/1.1/">
 <metadata id="metadata7">
  <rdf:RDF>
   <cc:Work rdf:about="">
    <dc:format>image/svg+xml</dc:format>
    <dc:type rdf:resource="http://purl.org/dc/dcmitype/StillImage"/>
    <dc:title/>
   </cc:Work>
  </rdf:RDF>
 </metadata>
 <g id="layer1" transform="translate(-343.41 -479.69)">
  <circle id="path4156" cy="580.67" cx="444.39" r="97.441" fill="#e64d3d"/>
  <g id="g6" font-size="40px" font-family="sans-serif">
   <flowRoot id="flowRoot3342" xml:space="preserve" style="word-spacing:0px;letter-spacing:0px" line-height="125%"><flowRegion id="flowRegion3344"><rect id="rect3346" y="400.93" width="108.57" height="100" x="225.71"/></flowRegion><flowPara id="flowPara3348"/></flowRoot>
   <text id="text3356" style="word-spacing:0px;letter-spacing:0px" xml:space="preserve" line-height="125%" y="488.36221" x="256"><tspan id="tspan3358" y="488.36221" x="256"/></text>
   <flowRoot id="flowRoot3360" xml:space="preserve" style="word-spacing:0px;letter-spacing:0px" line-height="125%"><flowRegion id="flowRegion3362"><rect id="rect3364" y="424.36" width="92" height="51" x="266"/></flowRegion><flowPara id="flowPara3366"/></flowRoot>
   <flowRoot id="flowRoot3372" xml:space="preserve" style="word-spacing:0px;letter-spacing:0px" line-height="125%"><flowRegion id="flowRegion3374"><rect id="rect3376" y="421.36" width="104" height="46" x="244"/></flowRegion><flowPara id="flowPara3378"/></flowRoot>
   <flowRoot id="flowRoot3380" xml:space="preserve" style="word-spacing:0px;letter-spacing:0px" line-height="125%"><flowRegion id="flowRegion3382"><rect id="rect3384" y="381.36" width="266" height="70" x="164"/></flowRegion><flowPara id="flowPara3386"/></flowRoot>
   <flowRoot id="flowRoot4158" xml:space="preserve" style="word-spacing:0px;letter-spacing:0px" line-height="125%"><flowRegion id="flowRegion4160"><rect id="rect4162" y="385.56" width="42.426" height="345.78" x="388.91"/></flowRegion><flowPara id="flowPara4164"/></flowRoot>
   <flowRoot id="flowRoot4166" xml:space="preserve" style="word-spacing:0px;letter-spacing:0px" line-height="125%"><flowRegion id="flowRegion4168"><rect id="rect4170" y="445.66" width="276.48" height="253.14" x="298.4"/></flowRegion><flowPara id="flowPara4172"/></flowRoot>
  </g>
  <g id="g34" fill="#fff" transform="translate(-2.14 1.7121)">
   <g id="text3368-0" transform="matrix(-.50691 .50772 .50008 .50089 379.98 55.962)">
    <path id="path4231" fill="#fff" d="m449.14 574.36q20.764-25.873 46.143-25.873 17.963 0 29.004 11.041 11.206 10.876 11.206 28.674t-10.876 29.004q-10.876 11.041-27.85 11.041-11.536 0-22.247-5.603-10.712-5.603-25.378-20.764-11.371 13.513-22.742 19.94-11.206 6.2622-24.719 6.2622-16.809 0-27.85-11.041t-11.041-28.345q0-17.468 11.371-28.674 11.536-11.371 28.674-11.371 23.566 0 46.307 25.708zm12.03 13.843 10.547 10.382q10.712 10.712 26.202 10.712 8.4045 0 13.843-5.7678 5.4382-5.7678 5.4382-15.326 0-9.3933-5.9326-15.326-5.9326-5.9326-15.326-5.9326-18.127 0-34.772 21.259zm-23.895 0q-12.36-12.689-19.94-16.809-7.4158-4.2847-15.656-4.2847-9.3933 0-15.161 5.7678-5.7678 5.7678-5.7678 15.326 0 9.8877 5.603 15.656 5.7678 5.603 14.502 5.603 8.7341 0 17.303-4.779 8.5693-4.9438 19.116-16.479z"/>
   </g>
   <g id="text3368-0-5" transform="matrix(-.5077 -.50694 -.50086 .50011 969.5 512.4)">
    <path id="path4231-2" fill="#fff" d="m449.14 574.36q20.764-25.873 46.143-25.873 17.963 0 29.004 11.041 11.206 10.876 11.206 28.674t-10.876 29.004q-10.876 11.041-27.85 11.041-11.536 0-22.247-5.603-10.712-5.603-25.378-20.764-11.371 13.513-22.742 19.94-11.206 6.2622-24.719 6.2622-16.809 0-27.85-11.041t-11.041-28.345q0-17.468 11.371-28.674 11.536-11.371 28.674-11.371 23.566 0 46.307 25.708zm12.03 13.843 10.547 10.382q10.712 10.712 26.202 10.712 8.4045 0 13.843-5.7678 5.4382-5.7678 5.4382-15.326 0-9.3933-5.9326-15.326-5.9326-5.9326-15.326-5.9326-18.127 0-34.772 21.259zm-23.895 0q-12.36-12.689-19.94-16.809-7.4158-4.2847-15.656-4.2847-9.3933 0-15.161 5.7678-5.7678 5.7678-5.7678 15.326 0 9.8877 5.603 15.656 5.7678 5.603 14.502 5.603 8.7341 0 17.303-4.779 8.5693-4.9438 19.116-16.479z"/>
   </g>
   <path id="rect4254-2" d="m-586.4 349.09h14.882v194.88h-14.882z" transform="rotate(-90)"/>
   <path id="rect4254" d="m439.09 481.52h14.882v194.88h-14.882z"/>
  </g>
 </g>
</svg>
