<?xml version="1.0" encoding="UTF-8" standalone="no"?>
<!-- Created with Inkscape (http://www.inkscape.org/) -->
<svg id="svg3383" xmlns:rdf="http://www.w3.org/1999/02/22-rdf-syntax-ns#" xmlns="http://www.w3.org/2000/svg" height="57mm" viewBox="0 0 201.96852 201.96852" width="57mm" version="1.1" xmlns:cc="http://creativecommons.org/ns#" xmlns:dc="http://purl.org/dc/elements/1.1/">
 <metadata id="metadata3388">
  <rdf:RDF>
   <cc:Work rdf:about="">
    <dc:format>image/svg+xml</dc:format>
    <dc:type rdf:resource="http://purl.org/dc/dcmitype/StillImage"/>
    <dc:title/>
   </cc:Work>
  </rdf:RDF>
 </metadata>
 <g id="layer1" transform="translate(-167.59 -628.52)">
  <circle id="path4156" cy="729.51" cx="268.57" r="97.441" fill="#e64d3d"/>
  <path id="path3398" d="m314.94 723.14c0.0158-0.46942 0.13615-0.90832 0.13615-1.3777 0-17.122-13.882-31.004-31.004-31.004-11.611 0-21.61 6.4643-26.924 15.911-1.3247-0.23471-2.6797-0.40887-4.0799-0.40887-10.158 0-18.704 6.5552-21.868 15.638-0.46167-0.0302-0.90832-0.13632-1.3852-0.13632-12.838 0-23.253 10.415-23.253 23.253s10.415 23.253 23.253 23.253h77.51c12.838 0 23.253-10.415 23.253-23.253 0-10.158-6.5549-18.711-15.638-21.875z" stroke="#8e0000" fill="#fffdff"/>
 </g>
</svg>
